<?xml version="1.0" standalone="no"?>
<!DOCTYPE svg PUBLIC "-//W3C//DTD SVG 20010904//EN"
 "http://www.w3.org/TR/2001/REC-SVG-20010904/DTD/svg10.dtd">
<svg version="1.0" xmlns="http://www.w3.org/2000/svg"
 width="512.000000pt" height="512.000000pt" viewBox="0 0 512.000000 512.000000"
 preserveAspectRatio="xMidYMid meet">

<g transform="translate(0.000000,512.000000) scale(0.100000,-0.100000)"
fill="#000000" stroke="none">
<path d="M0 2560 l0 -2560 2560 0 2560 0 0 2560 0 2560 -2560 0 -2560 0 0
-2560z m2962 2443 c37 -17 87 -50 112 -73 59 -54 113 -161 122 -240 4 -37 11
-60 19 -60 7 0 44 -16 82 -35 86 -43 144 -103 186 -193 l32 -67 3 -272 c2
-150 7 -273 12 -273 18 0 91 -83 117 -132 23 -45 27 -65 27 -138 1 -70 -4 -94
-24 -135 -49 -99 -149 -171 -255 -182 l-51 -5 -18 -69 c-42 -165 -163 -349
-298 -454 -40 -31 -74 -60 -76 -64 -1 -3 64 -23 144 -43 167 -42 291 -98 397
-179 165 -125 296 -341 330 -546 l13 -78 42 -3 42 -3 0 360 0 361 80 0 80 0 0
-360 0 -360 255 0 256 0 24 -25 c25 -24 25 -26 25 -215 0 -189 0 -191 -25
-215 -13 -14 -33 -25 -44 -25 -16 0 -21 -9 -26 -48 -4 -26 -8 -51 -9 -57 -2
-5 16 -31 39 -56 23 -26 47 -65 53 -87 16 -53 16 -411 0 -464 -21 -71 -91
-134 -179 -161 -13 -4 -20 -35 -34 -143 -16 -117 -22 -142 -41 -161 l-23 -23
-351 0 -351 0 -24 25 c-14 13 -25 30 -25 37 0 15 -135 1037 -146 1101 -4 28
-10 37 -25 37 -11 0 -31 11 -44 25 -25 24 -25 26 -25 215 0 189 0 191 25 215
23 24 29 25 155 25 129 0 130 0 130 23 0 47 -32 145 -76 236 -38 76 -61 109
-132 180 -114 115 -210 164 -432 221 -176 45 -170 44 -170 28 0 -27 -49 -115
-89 -160 -28 -32 -68 -60 -119 -85 -72 -36 -81 -38 -171 -38 -87 0 -102 3
-163 32 -37 17 -87 50 -111 72 -44 41 -107 144 -107 175 0 9 -3 16 -7 16 -5 0
-78 -18 -163 -40 -220 -56 -318 -106 -430 -219 -53 -54 -98 -110 -118 -149
l-33 -62 23 -9 c13 -5 39 -22 58 -37 30 -26 40 -29 94 -25 47 2 67 9 95 31 98
76 215 66 307 -25 60 -59 81 -118 69 -193 -9 -62 -9 -96 0 -159 6 -43 12 -53
31 -57 13 -4 31 -18 40 -31 15 -24 12 -63 -67 -693 -77 -619 -85 -669 -106
-689 l-22 -23 -586 0 c-381 0 -593 4 -605 10 -31 17 -37 38 -56 190 l-18 145
-41 37 c-24 21 -52 59 -64 88 -21 48 -22 63 -19 263 3 183 6 217 22 249 18 37
18 41 -4 217 -22 169 -22 181 -6 205 9 14 27 28 41 32 14 3 25 13 25 21 0 66
69 166 135 197 20 10 40 28 45 41 14 36 76 101 115 119 21 10 41 31 51 52 9
19 36 52 60 73 63 55 137 73 211 52 27 -8 33 -7 38 9 13 42 109 174 170 235
128 128 264 199 493 256 72 19 131 37 130 40 -2 4 -36 33 -77 64 -85 67 -183
186 -230 281 -36 72 -81 197 -81 224 0 13 -12 18 -53 23 -108 11 -208 82 -257
182 -20 41 -25 65 -25 135 0 74 4 92 28 138 26 50 100 132 118 132 5 0 9 117
9 259 0 278 8 350 53 473 76 209 255 389 465 465 131 48 171 52 567 50 l370
-2 67 -32z m398 -4403 l0 -520 -80 0 -80 0 0 520 0 520 80 0 80 0 0 -520z"/>
<path d="M2102 4865 c-183 -40 -345 -167 -432 -339 -59 -118 -70 -183 -70
-438 l0 -217 25 24 24 25 344 0 c205 0 367 4 403 11 32 6 92 26 133 45 97 45
212 158 259 256 34 71 53 88 99 88 23 0 66 -39 250 -223 l223 -222 0 199 c0
238 -6 262 -75 331 -51 52 -102 75 -164 75 -21 0 -41 9 -56 25 -22 21 -25 33
-25 96 0 39 -5 90 -12 113 -16 55 -99 138 -154 154 -61 18 -687 15 -772 -3z"/>
<path d="M2866 4051 c-84 -114 -219 -211 -361 -258 -79 -27 -84 -27 -413 -31
l-334 -4 4 -266 c4 -254 6 -271 30 -344 40 -119 92 -204 182 -294 90 -90 175
-143 294 -182 67 -22 94 -26 212 -26 118 0 145 4 212 26 119 39 204 92 294
182 90 90 142 175 182 294 25 74 26 88 30 367 l3 290 -149 148 -149 149 -37
-51z"/>
<path d="M1535 3666 c-124 -54 -123 -240 2 -292 64 -27 63 -31 63 146 0 177 1
175 -65 146z"/>
<path d="M3360 3520 l0 -162 33 6 c38 7 73 31 101 70 29 39 29 133 0 172 -28
39 -63 63 -101 70 l-33 7 0 -163z"/>
<path d="M2254 2484 c15 -59 87 -130 155 -153 84 -28 167 -6 237 64 45 44 74
98 60 112 -2 2 -21 0 -43 -7 -91 -26 -285 -23 -392 7 -22 6 -23 4 -17 -23z"/>
<path d="M1065 1895 c-16 -15 -25 -36 -25 -55 0 -19 -9 -40 -25 -55 -15 -16
-36 -25 -55 -25 -41 0 -80 -39 -80 -80 0 -41 -39 -80 -80 -80 -33 0 -80 -38
-80 -65 0 -13 62 -15 560 -15 l560 0 0 23 c0 12 -9 36 -20 52 -25 38 -25 80 0
112 25 33 26 73 0 100 -44 48 -97 37 -142 -28 -30 -43 -51 -48 -118 -28 -31
10 -44 9 -70 -5 -18 -9 -45 -16 -59 -16 -32 0 -71 25 -71 46 0 31 -47 64 -90
64 -35 0 -48 6 -81 40 -48 48 -87 53 -124 15z"/>
<path d="M3520 1520 l0 -80 480 0 480 0 0 80 0 80 -480 0 -480 0 0 -80z"/>
<path d="M654 1333 c3 -16 8 -52 11 -80 l7 -53 69 0 69 0 0 80 0 80 -81 0 -81
0 6 -27z"/>
<path d="M972 1268 c2 -70 6 -92 18 -96 30 -9 106 -98 118 -138 8 -27 12 -111
12 -240 0 -219 -8 -254 -69 -319 -29 -30 -29 -31 -24 -133 l6 -102 83 0 84 0
0 560 0 560 -116 0 -116 0 4 -92z"/>
<path d="M1360 800 l0 -560 83 0 83 0 32 533 c18 292 33 544 32 560 l0 27
-115 0 -115 0 0 -560z"/>
<path d="M1722 828 c-18 -293 -33 -545 -32 -560 0 -26 3 -28 40 -28 22 0 40 3
40 6 0 11 130 1050 135 1082 l6 32 -78 0 -79 0 -32 -532z"/>
<path d="M3614 1253 c3 -16 33 -235 66 -488 33 -253 63 -475 66 -492 l6 -33
248 0 248 0 5 33 c3 17 9 53 13 80 l6 47 -32 0 c-63 0 -114 23 -165 75 -69 68
-75 94 -75 325 0 231 6 257 75 325 60 61 101 75 219 75 75 0 86 2 86 18 0 9 3
27 6 40 l6 22 -392 0 -392 0 6 -27z"/>
<path d="M665 1015 c-25 -24 -25 -26 -25 -215 0 -189 0 -191 25 -215 23 -24
31 -25 135 -25 104 0 112 1 135 25 25 24 25 26 25 215 0 189 0 191 -25 215
-23 24 -31 25 -135 25 -104 0 -112 -1 -135 -25z"/>
<path d="M4185 1015 c-25 -24 -25 -26 -25 -215 0 -189 0 -191 25 -215 23 -24
31 -25 135 -25 104 0 112 1 135 25 25 24 25 26 25 215 0 189 0 191 -25 215
-23 24 -31 25 -135 25 -104 0 -112 -1 -135 -25z"/>
<path d="M774 373 c3 -16 8 -52 11 -80 l7 -53 39 0 39 0 0 80 0 80 -51 0 c-50
0 -51 0 -45 -27z"/>
</g>
</svg>
